<svg version="1.1" viewBox="0.0 0.0 600.0 371.0" fill="none" stroke="none" stroke-linecap="square" stroke-miterlimit="10" width="600" height="371" xmlns:xlink="http://www.w3.org/1999/xlink" xmlns="http://www.w3.org/2000/svg"><path fill="#ffffff" d="M0 0L600.0 0L600.0 371.0L0 371.0L0 0Z" fill-rule="nonzero"/><path stroke="#333333" stroke-width="1.0" stroke-linecap="butt" d="M84.5 300.5L581.5 300.5" fill-rule="nonzero"/><path stroke="#cccccc" stroke-width="1.0" stroke-linecap="butt" d="M84.5 231.5L581.5 231.5" fill-rule="nonzero"/><path stroke="#cccccc" stroke-width="1.0" stroke-linecap="butt" d="M84.5 163.5L581.5 163.5" fill-rule="nonzero"/><path stroke="#cccccc" stroke-width="1.0" stroke-linecap="butt" d="M84.5 94.5L581.5 94.5" fill-rule="nonzero"/><path stroke="#cccccc" stroke-width="1.0" stroke-linecap="butt" d="M84.5 25.5L581.5 25.5" fill-rule="nonzero"/><clipPath id="id_0"><path d="M84.55 25.55L581.45 25.55L581.45 300.45L84.55 300.45L84.55 25.55Z" clip-rule="nonzero"/></clipPath><path stroke="#000000" stroke-width="2.0" stroke-linecap="butt" stroke-opacity="0.0" clip-path="url(#id_0)" d="M128.0 300.0L100.0 300.0L100.0 213.0C100.0 211.89543 100.89543 211.0 102.0 211.0L126.0 211.0C127.10457 211.0 128.0 211.89543 128.0 213.0Z" fill-rule="nonzero"/><path fill="#4285f4" clip-path="url(#id_0)" d="M128.0 300.0L100.0 300.0L100.0 213.0C100.0 211.89543 100.89543 211.0 102.0 211.0L126.0 211.0C127.10457 211.0 128.0 211.89543 128.0 213.0Z" fill-rule="nonzero"/><path stroke="#000000" stroke-width="2.0" stroke-linecap="butt" stroke-opacity="0.0" clip-path="url(#id_0)" d="M172.0 300.0L144.0 300.0L144.0 275.0C144.0 273.89542 144.89543 273.0 146.0 273.0L170.0 273.0C171.10457 273.0 172.0 273.89542 172.0 275.0Z" fill-rule="nonzero"/><path fill="#4285f4" clip-path="url(#id_0)" d="M172.0 300.0L144.0 300.0L144.0 275.0C144.0 273.89542 144.89543 273.0 146.0 273.0L170.0 273.0C171.10457 273.0 172.0 273.89542 172.0 275.0Z" fill-rule="nonzero"/><path stroke="#000000" stroke-width="2.0" stroke-linecap="butt" stroke-opacity="0.0" clip-path="url(#id_0)" d="M216.0 300.0L188.0 300.0L188.0 289.0C188.0 287.89542 188.89543 287.0 190.0 287.0L214.0 287.0C215.10457 287.0 216.0 287.89542 216.0 289.0Z" fill-rule="nonzero"/><path fill="#4285f4" clip-path="url(#id_0)" d="M216.0 300.0L188.0 300.0L188.0 289.0C188.0 287.89542 188.89543 287.0 190.0 287.0L214.0 287.0C215.10457 287.0 216.0 287.89542 216.0 289.0Z" fill-rule="nonzero"/><path stroke="#000000" stroke-width="2.0" stroke-linecap="butt" stroke-opacity="0.0" clip-path="url(#id_0)" d="M259.0 300.0L231.0 300.0L231.0 300.0L259.0 300.0Z" fill-rule="nonzero"/><path fill="#4285f4" clip-path="url(#id_0)" d="M259.0 300.0L231.0 300.0L231.0 300.0L259.0 300.0Z" fill-rule="nonzero"/><path stroke="#000000" stroke-width="2.0" stroke-linecap="butt" stroke-opacity="0.0" clip-path="url(#id_0)" d="M303.0 300.0L275.0 300.0L275.0 300.0L303.0 300.0Z" fill-rule="nonzero"/><path fill="#4285f4" clip-path="url(#id_0)" d="M303.0 300.0L275.0 300.0L275.0 300.0L303.0 300.0Z" fill-rule="nonzero"/><path stroke="#000000" stroke-width="2.0" stroke-linecap="butt" stroke-opacity="0.0" clip-path="url(#id_0)" d="M347.0 300.0L319.0 300.0L319.0 289.0C319.0 287.89542 319.89542 287.0 321.0 287.0L345.0 287.0C346.10458 287.0 347.0 287.89542 347.0 289.0Z" fill-rule="nonzero"/><path fill="#4285f4" clip-path="url(#id_0)" d="M347.0 300.0L319.0 300.0L319.0 289.0C319.0 287.89542 319.89542 287.0 321.0 287.0L345.0 287.0C346.10458 287.0 347.0 287.89542 347.0 289.0Z" fill-rule="nonzero"/><path stroke="#000000" stroke-width="2.0" stroke-linecap="butt" stroke-opacity="0.0" clip-path="url(#id_0)" d="M391.0 300.0L363.0 300.0L363.0 165.0C363.0 163.89543 363.89542 163.0 365.0 163.0L389.0 163.0C390.10458 163.0 391.0 163.89543 391.0 165.0Z" fill-rule="nonzero"/><path fill="#4285f4" clip-path="url(#id_0)" d="M391.0 300.0L363.0 300.0L363.0 165.0C363.0 163.89543 363.89542 163.0 365.0 163.0L389.0 163.0C390.10458 163.0 391.0 163.89543 391.0 165.0Z" fill-rule="nonzero"/><path stroke="#000000" stroke-width="2.0" stroke-linecap="butt" stroke-opacity="0.0" clip-path="url(#id_0)" d="M435.0 300.0L407.0 300.0L407.0 55.0C407.0 53.89543 407.89542 53.0 409.0 53.0L433.0 53.0C434.10458 53.0 435.0 53.89543 435.0 55.0Z" fill-rule="nonzero"/><path fill="#4285f4" clip-path="url(#id_0)" d="M435.0 300.0L407.0 300.0L407.0 55.0C407.0 53.89543 407.89542 53.0 409.0 53.0L433.0 53.0C434.10458 53.0 435.0 53.89543 435.0 55.0Z" fill-rule="nonzero"/><path stroke="#000000" stroke-width="2.0" stroke-linecap="butt" stroke-opacity="0.0" clip-path="url(#id_0)" d="M478.0 300.0L450.0 300.0L450.0 28.0C450.0 26.89543 450.89542 26.0 452.0 26.0L476.0 26.0C477.10458 26.0 478.0 26.89543 478.0 28.0Z" fill-rule="nonzero"/><path fill="#4285f4" clip-path="url(#id_0)" d="M478.0 300.0L450.0 300.0L450.0 28.0C450.0 26.89543 450.89542 26.0 452.0 26.0L476.0 26.0C477.10458 26.0 478.0 26.89543 478.0 28.0Z" fill-rule="nonzero"/><path stroke="#000000" stroke-width="2.0" stroke-linecap="butt" stroke-opacity="0.0" clip-path="url(#id_0)" d="M522.0 300.0L494.0 300.0L494.0 289.0C494.0 287.89542 494.89542 287.0 496.0 287.0L520.0 287.0C521.10455 287.0 522.0 287.89542 522.0 289.0Z" fill-rule="nonzero"/><path fill="#4285f4" clip-path="url(#id_0)" d="M522.0 300.0L494.0 300.0L494.0 289.0C494.0 287.89542 494.89542 287.0 496.0 287.0L520.0 287.0C521.10455 287.0 522.0 287.89542 522.0 289.0Z" fill-rule="nonzero"/><path stroke="#000000" stroke-width="2.0" stroke-linecap="butt" stroke-opacity="0.0" clip-path="url(#id_0)" d="M566.0 300.0L538.0 300.0L538.0 300.0L566.0 300.0Z" fill-rule="nonzero"/><path fill="#4285f4" clip-path="url(#id_0)" d="M566.0 300.0L538.0 300.0L538.0 300.0L566.0 300.0Z" fill-rule="nonzero"/><path fill="#000000" d="M284.42188 349.45L284.42188 340.85626L287.39062 340.85626Q288.39062 340.85626 288.92188 340.98126Q289.65625 341.15314 290.17188 341.59064Q290.85938 342.16876 291.1875 343.075Q291.53125 343.96564 291.53125 345.10626Q291.53125 346.09064 291.29688 346.84064Q291.07812 347.59064 290.71875 348.09064Q290.35938 348.59064 289.92188 348.8719Q289.5 349.15314 288.90625 349.3094Q288.3125 349.45 287.53125 349.45L284.42188 349.45ZM285.5625 348.4344L287.39062 348.4344Q288.25 348.4344 288.73438 348.27814Q289.21875 348.1219 289.5 347.825Q289.90625 347.4344 290.125 346.7469Q290.35938 346.0594 290.35938 345.09064Q290.35938 343.7469 289.90625 343.02814Q289.46875 342.29376 288.84375 342.04376Q288.375 341.8719 287.375 341.8719L285.5625 341.8719L285.5625 348.4344ZM297.35938 348.6844Q296.76562 349.1844 296.21875 349.3875Q295.6875 349.59064 295.0625 349.59064Q294.03125 349.59064 293.48438 349.09064Q292.9375 348.59064 292.9375 347.8094Q292.9375 347.35626 293.14062 346.98126Q293.34375 346.59064 293.6875 346.3719Q294.03125 346.1375 294.45312 346.02814Q294.75 345.9344 295.39062 345.85626Q296.65625 345.71564 297.26562 345.4969Q297.26562 345.27814 297.26562 345.23126Q297.26562 344.575 296.96875 344.3094Q296.5625 343.96564 295.76562 343.96564Q295.03125 343.96564 294.67188 344.23126Q294.3125 344.48126 294.14062 345.1375L293.10938 344.9969Q293.25 344.34064 293.57812 343.9344Q293.90625 343.52814 294.51562 343.3094Q295.125 343.09064 295.92188 343.09064Q296.71875 343.09064 297.21875 343.27814Q297.71875 343.46564 297.95312 343.7469Q298.1875 344.02814 298.28125 344.46564Q298.32812 344.73126 298.32812 345.4344L298.32812 346.84064Q298.32812 348.3094 298.39062 348.7Q298.46875 349.09064 298.67188 349.45L297.5625 349.45Q297.40625 349.1219 297.35938 348.6844ZM297.26562 346.325Q296.6875 346.5594 295.54688 346.73126Q294.89062 346.825 294.625 346.95Q294.35938 347.0594 294.20312 347.27814Q294.0625 347.4969 294.0625 347.77814Q294.0625 348.2 294.375 348.48126Q294.70312 348.7625 295.3125 348.7625Q295.92188 348.7625 296.39062 348.4969Q296.875 348.23126 297.09375 347.7625Q297.26562 347.40314 297.26562 346.71564L297.26562 346.325ZM300.25 351.84064L300.125 350.85626Q300.46875 350.95 300.73438 350.95Q301.07812 350.95 301.28125 350.825Q301.5 350.71564 301.64062 350.5125Q301.73438 350.34064 301.96875 349.71564Q301.98438 349.6375 302.0625 349.46564L299.6875 343.23126L300.82812 343.23126L302.125 346.825Q302.375 347.5125 302.57812 348.27814Q302.76562 347.54376 303.01562 346.85626L304.34375 343.23126L305.39062 343.23126L303.03125 349.5594Q302.64062 350.575 302.4375 350.96564Q302.15625 351.4969 301.78125 351.73126Q301.42188 351.98126 300.92188 351.98126Q300.625 351.98126 300.25 351.84064ZM304.875 347.59064L305.90625 347.4344Q306.0 348.0594 306.39062 348.3875Q306.79688 348.71564 307.53125 348.71564Q308.25 348.71564 308.59375 348.4344Q308.95312 348.1375 308.95312 347.73126Q308.95312 347.3719 308.64062 347.16876Q308.42188 347.02814 307.5625 346.8094Q306.40625 346.5125 305.95312 346.3094Q305.51562 346.09064 305.28125 345.71564Q305.04688 345.34064 305.04688 344.8719Q305.04688 344.46564 305.23438 344.10626Q305.42188 343.7469 305.75 343.5125Q306.0 343.34064 306.42188 343.21564Q306.84375 343.09064 307.34375 343.09064Q308.0625 343.09064 308.60938 343.3094Q309.17188 343.5125 309.4375 343.8719Q309.70312 344.23126 309.79688 344.825L308.76562 344.96564Q308.70312 344.4969 308.35938 344.23126Q308.03125 343.95 307.40625 343.95Q306.6875 343.95 306.375 344.2Q306.0625 344.4344 306.0625 344.7625Q306.0625 344.96564 306.1875 345.1219Q306.32812 345.29376 306.59375 345.40314Q306.75 345.46564 307.53125 345.66876Q308.65625 345.98126 309.09375 346.16876Q309.53125 346.35626 309.78125 346.71564Q310.03125 347.075 310.03125 347.6219Q310.03125 348.15314 309.71875 348.6219Q309.42188 349.075 308.84375 349.34064Q308.26562 349.59064 307.53125 349.59064Q306.3125 349.59064 305.67188 349.09064Q305.04688 348.575 304.875 347.59064ZM319.35938 348.6844Q318.76562 349.1844 318.21875 349.3875Q317.6875 349.59064 317.0625 349.59064Q316.03125 349.59064 315.48438 349.09064Q314.9375 348.59064 314.9375 347.8094Q314.9375 347.35626 315.14062 346.98126Q315.34375 346.59064 315.6875 346.3719Q316.03125 346.1375 316.45312 346.02814Q316.75 345.9344 317.39062 345.85626Q318.65625 345.71564 319.26562 345.4969Q319.26562 345.27814 319.26562 345.23126Q319.26562 344.575 318.96875 344.3094Q318.5625 343.96564 317.76562 343.96564Q317.03125 343.96564 316.67188 344.23126Q316.3125 344.48126 316.14062 345.1375L315.10938 344.9969Q315.25 344.34064 315.57812 343.9344Q315.90625 343.52814 316.51562 343.3094Q317.125 343.09064 317.92188 343.09064Q318.71875 343.09064 319.21875 343.27814Q319.71875 343.46564 319.95312 343.7469Q320.1875 344.02814 320.28125 344.46564Q320.32812 344.73126 320.32812 345.4344L320.32812 346.84064Q320.32812 348.3094 320.39062 348.7Q320.46875 349.09064 320.67188 349.45L319.5625 349.45Q319.40625 349.1219 319.35938 348.6844ZM319.26562 346.325Q318.6875 346.5594 317.54688 346.73126Q316.89062 346.825 316.625 346.95Q316.35938 347.0594 316.20312 347.27814Q316.0625 347.4969 316.0625 347.77814Q316.0625 348.2 316.375 348.48126Q316.70312 348.7625 317.3125 348.7625Q317.92188 348.7625 318.39062 348.4969Q318.875 348.23126 319.09375 347.7625Q319.26562 347.40314 319.26562 346.71564L319.26562 346.325ZM322.54688 349.45L322.54688 344.04376L321.60938 344.04376L321.60938 343.23126L322.54688 343.23126L322.54688 342.5594Q322.54688 341.9344 322.65625 341.6375Q322.8125 341.21564 323.1875 340.96564Q323.57812 340.71564 324.26562 340.71564Q324.71875 340.71564 325.25 340.825L325.09375 341.73126Q324.76562 341.6844 324.46875 341.6844Q323.98438 341.6844 323.78125 341.8875Q323.59375 342.09064 323.59375 342.65314L323.59375 343.23126L324.8125 343.23126L324.8125 344.04376L323.59375 344.04376L323.59375 349.45L322.54688 349.45ZM327.59375 348.5125L327.75 349.4344Q327.29688 349.52814 326.95312 349.52814Q326.375 349.52814 326.0625 349.35626Q325.75 349.16876 325.60938 348.8719Q325.48438 348.575 325.48438 347.6219L325.48438 344.04376L324.71875 344.04376L324.71875 343.23126L325.48438 343.23126L325.48438 341.6844L326.53125 341.0594L326.53125 343.23126L327.59375 343.23126L327.59375 344.04376L326.53125 344.04376L326.53125 347.6844Q326.53125 348.1375 326.57812 348.2625Q326.64062 348.3875 326.76562 348.46564Q326.89062 348.54376 327.125 348.54376Q327.3125 348.54376 327.59375 348.5125ZM332.54688 347.45L333.64062 347.575Q333.39062 348.52814 332.6875 349.0594Q331.98438 349.59064 330.90625 349.59064Q329.54688 349.59064 328.73438 348.7469Q327.9375 347.90314 327.9375 346.3875Q327.9375 344.825 328.75 343.96564Q329.5625 343.09064 330.84375 343.09064Q332.09375 343.09064 332.875 343.9344Q333.67188 344.77814 333.67188 346.325Q333.67188 346.41876 333.67188 346.60626L329.03125 346.60626Q329.09375 347.6375 329.60938 348.1844Q330.125 348.71564 330.90625 348.71564Q331.48438 348.71564 331.89062 348.41876Q332.3125 348.10626 332.54688 347.45ZM329.09375 345.7469L332.5625 345.7469Q332.5 344.95 332.17188 344.5594Q331.65625 343.95 330.85938 343.95Q330.125 343.95 329.625 344.4344Q329.14062 344.91876 329.09375 345.7469ZM335.28125 349.45L335.28125 343.23126L336.23438 343.23126L336.23438 344.16876Q336.59375 343.5125 336.89062 343.3094Q337.20312 343.09064 337.57812 343.09064Q338.10938 343.09064 338.65625 343.41876L338.29688 344.40314Q337.90625 344.16876 337.53125 344.16876Q337.17188 344.16876 336.89062 344.3875Q336.625 344.59064 336.51562 344.96564Q336.32812 345.52814 336.32812 346.1844L336.32812 349.45L335.28125 349.45ZM341.875 347.59064L342.90625 347.4344Q343.0 348.0594 343.39062 348.3875Q343.79688 348.71564 344.53125 348.71564Q345.25 348.71564 345.59375 348.4344Q345.95312 348.1375 345.95312 347.73126Q345.95312 347.3719 345.64062 347.16876Q345.42188 347.02814 344.5625 346.8094Q343.40625 346.5125 342.95312 346.3094Q342.51562 346.09064 342.28125 345.71564Q342.04688 345.34064 342.04688 344.8719Q342.04688 344.46564 342.23438 344.10626Q342.42188 343.7469 342.75 343.5125Q343.0 343.34064 343.42188 343.21564Q343.84375 343.09064 344.34375 343.09064Q345.0625 343.09064 345.60938 343.3094Q346.17188 343.5125 346.4375 343.8719Q346.70312 344.23126 346.79688 344.825L345.76562 344.96564Q345.70312 344.4969 345.35938 344.23126Q345.03125 343.95 344.40625 343.95Q343.6875 343.95 343.375 344.2Q343.0625 344.4344 343.0625 344.7625Q343.0625 344.96564 343.1875 345.1219Q343.32812 345.29376 343.59375 345.40314Q343.75 345.46564 344.53125 345.66876Q345.65625 345.98126 346.09375 346.16876Q346.53125 346.35626 346.78125 346.71564Q347.03125 347.075 347.03125 347.6219Q347.03125 348.15314 346.71875 348.6219Q346.42188 349.075 345.84375 349.34064Q345.26562 349.59064 344.53125 349.59064Q343.3125 349.59064 342.67188 349.09064Q342.04688 348.575 341.875 347.59064ZM353.375 349.45L353.375 348.52814Q352.64062 349.59064 351.39062 349.59064Q350.84375 349.59064 350.35938 349.3875Q349.89062 349.16876 349.65625 348.85626Q349.42188 348.52814 349.32812 348.0594Q349.26562 347.7625 349.26562 347.075L349.26562 343.23126L350.32812 343.23126L350.32812 346.6844Q350.32812 347.4969 350.39062 347.79376Q350.48438 348.2 350.79688 348.45Q351.125 348.6844 351.60938 348.6844Q352.07812 348.6844 352.48438 348.45Q352.90625 348.2 353.07812 347.77814Q353.26562 347.35626 353.26562 346.5594L353.26562 343.23126L354.3125 343.23126L354.3125 349.45L353.375 349.45ZM356.28125 349.45L356.28125 343.23126L357.23438 343.23126L357.23438 344.16876Q357.59375 343.5125 357.89062 343.3094Q358.20312 343.09064 358.57812 343.09064Q359.10938 343.09064 359.65625 343.41876L359.29688 344.40314Q358.90625 344.16876 358.53125 344.16876Q358.17188 344.16876 357.89062 344.3875Q357.625 344.59064 357.51562 344.96564Q357.32812 345.52814 357.32812 346.1844L357.32812 349.45L356.28125 349.45ZM360.09375 349.96564L361.125 350.1219Q361.1875 350.59064 361.48438 350.8094Q361.875 351.10626 362.54688 351.10626Q363.28125 351.10626 363.67188 350.8094Q364.07812 350.5125 364.21875 349.9969Q364.3125 349.66876 364.29688 348.6375Q363.60938 349.45 362.57812 349.45Q361.29688 349.45 360.59375 348.52814Q359.89062 347.59064 359.89062 346.3094Q359.89062 345.41876 360.20312 344.66876Q360.53125 343.90314 361.14062 343.4969Q361.75 343.09064 362.57812 343.09064Q363.6875 343.09064 364.40625 343.98126L364.40625 343.23126L365.375 343.23126L365.375 348.60626Q365.375 350.0594 365.07812 350.66876Q364.78125 351.27814 364.14062 351.6219Q363.5 351.98126 362.5625 351.98126Q361.45312 351.98126 360.76562 351.48126Q360.07812 350.98126 360.09375 349.96564ZM360.96875 346.23126Q360.96875 347.45 361.45312 348.0125Q361.9375 348.575 362.67188 348.575Q363.40625 348.575 363.89062 348.0125Q364.39062 347.45 364.39062 346.2625Q364.39062 345.1219 363.875 344.54376Q363.375 343.96564 362.65625 343.96564Q361.95312 343.96564 361.45312 344.54376Q360.96875 345.10626 360.96875 346.23126ZM371.54688 347.45L372.64062 347.575Q372.39062 348.52814 371.6875 349.0594Q370.98438 349.59064 369.90625 349.59064Q368.54688 349.59064 367.73438 348.7469Q366.9375 347.90314 366.9375 346.3875Q366.9375 344.825 367.75 343.96564Q368.5625 343.09064 369.84375 343.09064Q371.09375 343.09064 371.875 343.9344Q372.67188 344.77814 372.67188 346.325Q372.67188 346.41876 372.67188 346.60626L368.03125 346.60626Q368.09375 347.6375 368.60938 348.1844Q369.125 348.71564 369.90625 348.71564Q370.48438 348.71564 370.89062 348.41876Q371.3125 348.10626 371.54688 347.45ZM368.09375 345.7469L371.5625 345.7469Q371.5 344.95 371.17188 344.5594Q370.65625 343.95 369.85938 343.95Q369.125 343.95 368.625 344.4344Q368.14062 344.91876 368.09375 345.7469ZM374.28125 349.45L374.28125 343.23126L375.23438 343.23126L375.23438 344.16876Q375.59375 343.5125 375.89062 343.3094Q376.20312 343.09064 376.57812 343.09064Q377.10938 343.09064 377.65625 343.41876L377.29688 344.40314Q376.90625 344.16876 376.53125 344.16876Q376.17188 344.16876 375.89062 344.3875Q375.625 344.59064 375.51562 344.96564Q375.32812 345.52814 375.32812 346.1844L375.32812 349.45L374.28125 349.45ZM378.25 351.84064L378.125 350.85626Q378.46875 350.95 378.73438 350.95Q379.07812 350.95 379.28125 350.825Q379.5 350.71564 379.64062 350.5125Q379.73438 350.34064 379.96875 349.71564Q379.98438 349.6375 380.0625 349.46564L377.6875 343.23126L378.82812 343.23126L380.125 346.825Q380.375 347.5125 380.57812 348.27814Q380.76562 347.54376 381.01562 346.85626L382.34375 343.23126L383.39062 343.23126L381.03125 349.5594Q380.64062 350.575 380.4375 350.96564Q380.15625 351.4969 379.78125 351.73126Q379.42188 351.98126 378.92188 351.98126Q378.625 351.98126 378.25 351.84064Z" fill-rule="nonzero"/><path fill="#000000" d="M26.175013 220.04688L25.175013 220.04688L25.159388 216.42188L28.346888 216.42188Q29.018763 217.25 29.362513 218.14062Q29.690638 219.03125 29.690638 219.96875Q29.690638 221.23438 29.159388 222.28125Q28.612513 223.3125 27.596888 223.84375Q26.565638 224.35938 25.300013 224.35938Q24.034388 224.35938 22.956263 223.84375Q21.862513 223.3125 21.346888 222.32812Q20.815638 221.34375 20.815638 220.0625Q20.815638 219.125 21.112513 218.375Q21.409388 217.625 21.956263 217.20312Q22.487513 216.76562 23.362513 216.54688L23.643763 217.5625Q22.987513 217.76562 22.612513 218.0625Q22.237513 218.34375 22.018763 218.875Q21.784388 219.40625 21.784388 220.04688Q21.784388 220.82812 22.018763 221.40625Q22.253138 221.96875 22.643763 222.32812Q23.034388 222.67188 23.503138 222.85938Q24.300013 223.1875 25.221888 223.1875Q26.378138 223.1875 27.159388 222.79688Q27.925013 222.39062 28.300013 221.64062Q28.675013 220.89062 28.675013 220.03125Q28.675013 219.29688 28.393763 218.59375Q28.096888 217.89062 27.784388 217.53125L26.175013 217.53125L26.175013 220.04688ZM29.550013 215.21875L23.331263 215.21875L23.331263 214.26562L24.268763 214.26562Q23.612513 213.90625 23.409388 213.60938Q23.190638 213.29688 23.190638 212.92188Q23.190638 212.39062 23.518763 211.84375L24.503138 212.20312Q24.268763 212.59375 24.268763 212.96875Q24.268763 213.32812 24.487513 213.60938Q24.690638 213.875 25.065638 213.98438Q25.628138 214.17188 26.284388 214.17188L29.550013 214.17188L29.550013 215.21875ZM28.784388 207.14062Q29.284388 207.73438 29.487513 208.28125Q29.690638 208.8125 29.690638 209.4375Q29.690638 210.46875 29.190638 211.01562Q28.690638 211.5625 27.909388 211.5625Q27.456263 211.5625 27.081263 211.35938Q26.690638 211.15625 26.471888 210.8125Q26.237513 210.46875 26.128138 210.04688Q26.034388 209.75 25.956263 209.10938Q25.815638 207.84375 25.596888 207.23438Q25.378138 207.23438 25.331263 207.23438Q24.675013 207.23438 24.409388 207.53125Q24.065638 207.9375 24.065638 208.73438Q24.065638 209.46875 24.331263 209.82812Q24.581263 210.1875 25.237513 210.35938L25.096888 211.39062Q24.440638 211.25 24.034388 210.92188Q23.628138 210.59375 23.409388 209.98438Q23.190638 209.375 23.190638 208.57812Q23.190638 207.78125 23.378138 207.28125Q23.565638 206.78125 23.846888 206.54688Q24.128138 206.3125 24.565638 206.21875Q24.831263 206.17188 25.534388 206.17188L26.940638 206.17188Q28.409388 206.17188 28.800013 206.10938Q29.190638 206.03125 29.550013 205.82812L29.550013 206.9375Q29.221888 207.09375 28.784388 207.14062ZM26.425013 207.23438Q26.659388 207.8125 26.831263 208.95312Q26.925013 209.60938 27.050013 209.875Q27.159388 210.14062 27.378138 210.29688Q27.596888 210.4375 27.878138 210.4375Q28.300013 210.4375 28.581263 210.125Q28.862513 209.79688 28.862513 209.1875Q28.862513 208.57812 28.596888 208.10938Q28.331263 207.625 27.862513 207.40625Q27.503138 207.23438 26.815638 207.23438L26.425013 207.23438ZM29.550013 204.20312L23.331263 204.20312L23.331263 203.26562L24.206263 203.26562Q23.737513 202.96875 23.471888 202.48438Q23.190638 202.0 23.190638 201.375Q23.190638 200.6875 23.471888 200.25Q23.753138 199.79688 24.268763 199.625Q23.190638 198.875 23.190638 197.70312Q23.190638 196.76562 23.706263 196.28125Q24.206263 195.78125 25.284388 195.78125L29.550013 195.78125L29.550013 196.82812L25.628138 196.82812Q25.003138 196.82812 24.721888 196.9375Q24.440638 197.03125 24.268763 197.29688Q24.096888 197.5625 24.096888 197.9375Q24.096888 198.59375 24.534388 199.03125Q24.971888 199.45312 25.940638 199.45312L29.550013 199.45312L29.550013 200.51562L25.503138 200.51562Q24.800013 200.51562 24.456263 200.78125Q24.096888 201.03125 24.096888 201.60938Q24.096888 202.0625 24.331263 202.4375Q24.565638 202.8125 25.018763 202.98438Q25.471888 203.15625 26.315638 203.15625L29.550013 203.15625L29.550013 204.20312ZM27.690638 193.625L27.534388 192.59375Q28.159388 192.5 28.487513 192.10938Q28.815638 191.70312 28.815638 190.96875Q28.815638 190.25 28.534388 189.90625Q28.237513 189.54688 27.831263 189.54688Q27.471888 189.54688 27.268763 189.85938Q27.128138 190.07812 26.909388 190.9375Q26.612513 192.09375 26.409388 192.54688Q26.190638 192.98438 25.815638 193.21875Q25.440638 193.45312 24.971888 193.45312Q24.565638 193.45312 24.206263 193.26562Q23.846888 193.07812 23.612513 192.75Q23.440638 192.5 23.315638 192.07812Q23.190638 191.65625 23.190638 191.15625Q23.190638 190.4375 23.409388 189.89062Q23.612513 189.32812 23.971888 189.0625Q24.331263 188.79688 24.925013 188.70312L25.065638 189.73438Q24.596888 189.79688 24.331263 190.14062Q24.050013 190.46875 24.050013 191.09375Q24.050013 191.8125 24.300013 192.125Q24.534388 192.4375 24.862513 192.4375Q25.065638 192.4375 25.221888 192.3125Q25.393763 192.17188 25.503138 191.90625Q25.565638 191.75 25.768763 190.96875Q26.081263 189.84375 26.268763 189.40625Q26.456263 188.96875 26.815638 188.71875Q27.175013 188.46875 27.721888 188.46875Q28.253138 188.46875 28.721888 188.78125Q29.175013 189.07812 29.440638 189.65625Q29.690638 190.23438 29.690638 190.96875Q29.690638 192.1875 29.190638 192.82812Q28.675013 193.45312 27.690638 193.625ZM26.440638 183.59375Q24.706263 183.59375 23.878138 182.64062Q23.190638 181.84375 23.190638 180.6875Q23.190638 179.40625 24.034388 178.59375Q24.862513 177.76562 26.346888 177.76562Q27.550013 177.76562 28.237513 178.125Q28.925013 178.48438 29.315638 179.1875Q29.690638 179.875 29.690638 180.6875Q29.690638 181.98438 28.862513 182.79688Q28.018763 183.59375 26.440638 183.59375ZM26.440638 182.51562Q27.628138 182.51562 28.221888 182.0Q28.815638 181.46875 28.815638 180.6875Q28.815638 179.89062 28.221888 179.375Q27.628138 178.85938 26.409388 178.85938Q25.253138 178.85938 24.659388 179.39062Q24.065638 179.90625 24.065638 180.6875Q24.065638 181.46875 24.659388 182.0Q25.237513 182.51562 26.440638 182.51562ZM29.550013 175.95312L24.143763 175.95312L24.143763 176.89062L23.331263 176.89062L23.331263 175.95312L22.659388 175.95312Q22.034388 175.95312 21.737513 175.84375Q21.315638 175.6875 21.065638 175.3125Q20.815638 174.92188 20.815638 174.23438Q20.815638 173.78125 20.925013 173.25L21.831263 173.40625Q21.784388 173.73438 21.784388 174.03125Q21.784388 174.51562 21.987513 174.71875Q22.190638 174.90625 22.753138 174.90625L23.331263 174.90625L23.331263 173.6875L24.143763 173.6875L24.143763 174.90625L29.550013 174.90625L29.550013 175.95312ZM31.940638 170.20312L23.331263 170.20312L23.331263 169.25L24.128138 169.25Q23.659388 168.90625 23.425013 168.48438Q23.190638 168.04688 23.190638 167.4375Q23.190638 166.64062 23.596888 166.03125Q24.003138 165.42188 24.753138 165.125Q25.503138 164.8125 26.393763 164.8125Q27.346888 164.8125 28.112513 165.15625Q28.878138 165.48438 29.284388 166.14062Q29.690638 166.79688 29.690638 167.51562Q29.690638 168.04688 29.471888 168.46875Q29.237513 168.89062 28.909388 169.15625L31.940638 169.15625L31.940638 170.20312ZM26.471888 169.25Q27.675013 169.25 28.253138 168.76562Q28.815638 168.28125 28.815638 167.59375Q28.815638 166.89062 28.221888 166.39062Q27.628138 165.89062 26.378138 165.89062Q25.190638 165.89062 24.612513 166.375Q24.018763 166.85938 24.018763 167.54688Q24.018763 168.21875 24.643763 168.73438Q25.268763 169.25 26.471888 169.25ZM28.784388 159.14062Q29.284388 159.73438 29.487513 160.28125Q29.690638 160.8125 29.690638 161.4375Q29.690638 162.46875 29.190638 163.01562Q28.690638 163.5625 27.909388 163.5625Q27.456263 163.5625 27.081263 163.35938Q26.690638 163.15625 26.471888 162.8125Q26.237513 162.46875 26.128138 162.04688Q26.034388 161.75 25.956263 161.10938Q25.815638 159.84375 25.596888 159.23438Q25.378138 159.23438 25.331263 159.23438Q24.675013 159.23438 24.409388 159.53125Q24.065638 159.9375 24.065638 160.73438Q24.065638 161.46875 24.331263 161.82812Q24.581263 162.1875 25.237513 162.35938L25.096888 163.39062Q24.440638 163.25 24.034388 162.92188Q23.628138 162.59375 23.409388 161.98438Q23.190638 161.375 23.190638 160.57812Q23.190638 159.78125 23.378138 159.28125Q23.565638 158.78125 23.846888 158.54688Q24.128138 158.3125 24.565638 158.21875Q24.831263 158.17188 25.534388 158.17188L26.940638 158.17188Q28.409388 158.17188 28.800013 158.10938Q29.190638 158.03125 29.550013 157.82812L29.550013 158.9375Q29.221888 159.09375 28.784388 159.14062ZM26.425013 159.23438Q26.659388 159.8125 26.831263 160.95312Q26.925013 161.60938 27.050013 161.875Q27.159388 162.14062 27.378138 162.29688Q27.596888 162.4375 27.878138 162.4375Q28.300013 162.4375 28.581263 162.125Q28.862513 161.79688 28.862513 161.1875Q28.862513 160.57812 28.596888 160.10938Q28.331263 159.625 27.862513 159.40625Q27.503138 159.23438 26.815638 159.23438L26.425013 159.23438ZM22.175013 156.20312L20.956263 156.20312L20.956263 155.14062L22.175013 155.14062L22.175013 156.20312ZM29.550013 156.20312L23.331263 156.20312L23.331263 155.14062L29.550013 155.14062L29.550013 156.20312ZM29.550013 153.20312L23.331263 153.20312L23.331263 152.26562L24.206263 152.26562Q23.190638 151.57812 23.190638 150.28125Q23.190638 149.71875 23.393763 149.25Q23.596888 148.76562 23.925013 148.53125Q24.253138 148.29688 24.690638 148.20312Q24.987513 148.15625 25.721888 148.15625L29.550013 148.15625L29.550013 149.20312L25.768763 149.20312Q25.112513 149.20312 24.800013 149.32812Q24.487513 149.45312 24.300013 149.76562Q24.096888 150.07812 24.096888 150.5Q24.096888 151.17188 24.534388 151.67188Q24.956263 152.15625 26.143763 152.15625L29.550013 152.15625L29.550013 153.20312ZM29.550013 146.20312L20.956263 146.20312L20.956263 145.14062L25.862513 145.14062L23.331263 142.65625L23.331263 141.28125L25.628138 143.67188L29.550013 141.04688L29.550013 142.34375L26.362513 144.40625L27.081263 145.14062L29.550013 145.14062L29.550013 146.20312ZM22.175013 140.20312L20.956263 140.20312L20.956263 139.14062L22.175013 139.14062L22.175013 140.20312ZM29.550013 140.20312L23.331263 140.20312L23.331263 139.14062L29.550013 139.14062L29.550013 140.20312ZM29.550013 137.23438L20.956263 137.23438L20.956263 136.17188L29.550013 136.17188L29.550013 137.23438ZM29.550013 134.23438L20.956263 134.23438L20.956263 133.17188L29.550013 133.17188L29.550013 134.23438ZM27.550013 126.953125L27.675013 125.859375Q28.628138 126.109375 29.159388 126.8125Q29.690638 127.515625 29.690638 128.59375Q29.690638 129.95312 28.846888 130.76562Q28.003138 131.5625 26.487513 131.5625Q24.925013 131.5625 24.065638 130.75Q23.190638 129.9375 23.190638 128.65625Q23.190638 127.40625 24.034388 126.625Q24.878138 125.828125 26.425013 125.828125Q26.518763 125.828125 26.706263 125.828125L26.706263 130.46875Q27.737513 130.40625 28.284388 129.89062Q28.815638 129.375 28.815638 128.59375Q28.815638 128.01562 28.518763 127.609375Q28.206263 127.1875 27.550013 126.953125ZM25.846888 130.40625L25.846888 126.9375Q25.050013 127.0 24.659388 127.328125Q24.050013 127.84375 24.050013 128.64062Q24.050013 129.375 24.534388 129.875Q25.018763 130.35938 25.846888 130.40625ZM29.550013 124.21875L23.331263 124.21875L23.331263 123.265625L24.268763 123.265625Q23.612513 122.90625 23.409388 122.609375Q23.190638 122.296875 23.190638 121.921875Q23.190638 121.390625 23.518763 120.84375L24.503138 121.203125Q24.268763 121.59375 24.268763 121.96875Q24.268763 122.328125 24.487513 122.609375Q24.690638 122.875 25.065638 122.984375Q25.628138 123.171875 26.284388 123.171875L29.550013 123.171875L29.550013 124.21875ZM27.690638 120.625L27.534388 119.59375Q28.159388 119.5 28.487513 119.109375Q28.815638 118.703125 28.815638 117.96875Q28.815638 117.25 28.534388 116.90625Q28.237513 116.546875 27.831263 116.546875Q27.471888 116.546875 27.268763 116.859375Q27.128138 117.078125 26.909388 117.9375Q26.612513 119.09375 26.409388 119.546875Q26.190638 119.984375 25.815638 120.21875Q25.440638 120.453125 24.971888 120.453125Q24.565638 120.453125 24.206263 120.265625Q23.846888 120.078125 23.612513 119.75Q23.440638 119.5 23.315638 119.078125Q23.190638 118.65625 23.190638 118.15625Q23.190638 117.4375 23.409388 116.890625Q23.612513 116.328125 23.971888 116.0625Q24.331263 115.796875 24.925013 115.703125L25.065638 116.734375Q24.596888 116.796875 24.331263 117.140625Q24.050013 117.46875 24.050013 118.09375Q24.050013 118.8125 24.300013 119.125Q24.534388 119.4375 24.862513 119.4375Q25.065638 119.4375 25.221888 119.3125Q25.393763 119.171875 25.503138 118.90625Q25.565638 118.75 25.768763 117.96875Q26.081263 116.84375 26.268763 116.40625Q26.456263 115.96875 26.815638 115.71875Q27.175013 115.46875 27.721888 115.46875Q28.253138 115.46875 28.721888 115.78125Q29.175013 116.078125 29.440638 116.65625Q29.690638 117.234375 29.690638 117.96875Q29.690638 119.1875 29.190638 119.828125Q28.675013 120.453125 27.690638 120.625Z" fill-rule="nonzero"/><path fill="#000000" d="M72.05 300.21564Q72.05 298.6844 72.3625 297.7625Q72.675 296.825 73.28438 296.325Q73.90938 295.825 74.84688 295.825Q75.53438 295.825 76.05 296.10626Q76.58125 296.3875 76.925 296.91876Q77.26875 297.4344 77.45625 298.1844Q77.64375 298.9344 77.64375 300.21564Q77.64375 301.73126 77.33125 302.65314Q77.03438 303.575 76.40938 304.09064Q75.8 304.59064 74.84688 304.59064Q73.6125 304.59064 72.89375 303.7Q72.05 302.6375 72.05 300.21564ZM73.12813 300.21564Q73.12813 302.325 73.62813 303.02814Q74.12813 303.73126 74.84688 303.73126Q75.58125 303.73126 76.06563 303.02814Q76.56563 302.325 76.56563 300.21564Q76.56563 298.09064 76.06563 297.40314Q75.58125 296.7 74.83125 296.7Q74.1125 296.7 73.675 297.3094Q73.12813 298.09064 73.12813 300.21564Z" fill-rule="nonzero"/><path fill="#000000" d="M55.01875 235.725L53.971874 235.725L53.971874 229.00626Q53.58125 229.36563 52.95625 229.74063Q52.346874 230.1 51.8625 230.27188L51.8625 229.25626Q52.7375 228.83438 53.39375 228.25626Q54.065624 227.6625 54.346874 227.1L55.01875 227.1L55.01875 235.725ZM58.05 231.49063Q58.05 229.95938 58.3625 229.0375Q58.675 228.1 59.284374 227.6Q59.909374 227.1 60.846874 227.1Q61.534374 227.1 62.05 227.38126Q62.58125 227.6625 62.925 228.19376Q63.26875 228.70938 63.45625 229.45938Q63.64375 230.20938 63.64375 231.49063Q63.64375 233.00626 63.33125 233.92813Q63.034374 234.85 62.409374 235.36563Q61.8 235.86563 60.846874 235.86563Q59.6125 235.86563 58.89375 234.975Q58.05 233.9125 58.05 231.49063ZM59.128124 231.49063Q59.128124 233.6 59.628124 234.30313Q60.128124 235.00626 60.846874 235.00626Q61.58125 235.00626 62.065624 234.30313Q62.565624 233.6 62.565624 231.49063Q62.565624 229.36563 62.065624 228.67813Q61.58125 227.975 60.83125 227.975Q60.1125 227.975 59.675 228.58438Q59.128124 229.36563 59.128124 231.49063ZM65.05 231.49063Q65.05 229.95938 65.3625 229.0375Q65.675 228.1 66.28438 227.6Q66.90938 227.1 67.84688 227.1Q68.53438 227.1 69.05 227.38126Q69.58125 227.6625 69.925 228.19376Q70.26875 228.70938 70.45625 229.45938Q70.64375 230.20938 70.64375 231.49063Q70.64375 233.00626 70.33125 233.92813Q70.03438 234.85 69.40938 235.36563Q68.8 235.86563 67.84688 235.86563Q66.6125 235.86563 65.89375 234.975Q65.05 233.9125 65.05 231.49063ZM66.12813 231.49063Q66.12813 233.6 66.62813 234.30313Q67.12813 235.00626 67.84688 235.00626Q68.58125 235.00626 69.06563 234.30313Q69.56563 233.6 69.56563 231.49063Q69.56563 229.36563 69.06563 228.67813Q68.58125 227.975 67.83125 227.975Q67.1125 227.975 66.675 228.58438Q66.12813 229.36563 66.12813 231.49063ZM72.05 231.49063Q72.05 229.95938 72.3625 229.0375Q72.675 228.1 73.28438 227.6Q73.90938 227.1 74.84688 227.1Q75.53438 227.1 76.05 227.38126Q76.58125 227.6625 76.925 228.19376Q77.26875 228.70938 77.45625 229.45938Q77.64375 230.20938 77.64375 231.49063Q77.64375 233.00626 77.33125 233.92813Q77.03438 234.85 76.40938 235.36563Q75.8 235.86563 74.84688 235.86563Q73.6125 235.86563 72.89375 234.975Q72.05 233.9125 72.05 231.49063ZM73.12813 231.49063Q73.12813 233.6 73.62813 234.30313Q74.12813 235.00626 74.84688 235.00626Q75.58125 235.00626 76.06563 234.30313Q76.56563 233.6 76.56563 231.49063Q76.56563 229.36563 76.06563 228.67813Q75.58125 227.975 74.83125 227.975Q74.1125 227.975 73.675 228.58438Q73.12813 229.36563 73.12813 231.49063Z" fill-rule="nonzero"/><path fill="#000000" d="M56.596874 165.98438L56.596874 167.0L50.909374 167.0Q50.909374 166.625 51.034374 166.26562Q51.253124 165.6875 51.721874 165.125Q52.20625 164.5625 53.1125 163.82812Q54.51875 162.67188 55.003124 162.0Q55.503124 161.32812 55.503124 160.73438Q55.503124 160.10938 55.05 159.6875Q54.596874 159.25 53.878124 159.25Q53.1125 159.25 52.659374 159.70312Q52.20625 160.15625 52.190624 160.96875L51.1125 160.85938Q51.221874 159.64062 51.940624 159.01562Q52.675 158.375 53.909374 158.375Q55.14375 158.375 55.8625 159.0625Q56.58125 159.75 56.58125 160.76562Q56.58125 161.28125 56.3625 161.78125Q56.159374 162.26562 55.659374 162.82812Q55.175 163.375 54.05 164.32812Q53.096874 165.125 52.815624 165.42188Q52.55 165.70312 52.378124 165.98438L56.596874 165.98438ZM58.05 162.76562Q58.05 161.23438 58.3625 160.3125Q58.675 159.375 59.284374 158.875Q59.909374 158.375 60.846874 158.375Q61.534374 158.375 62.05 158.65625Q62.58125 158.9375 62.925 159.46875Q63.26875 159.98438 63.45625 160.73438Q63.64375 161.48438 63.64375 162.76562Q63.64375 164.28125 63.33125 165.20312Q63.034374 166.125 62.409374 166.64062Q61.8 167.14062 60.846874 167.14062Q59.6125 167.14062 58.89375 166.25Q58.05 165.1875 58.05 162.76562ZM59.128124 162.76562Q59.128124 164.875 59.628124 165.57812Q60.128124 166.28125 60.846874 166.28125Q61.58125 166.28125 62.065624 165.57812Q62.565624 164.875 62.565624 162.76562Q62.565624 160.64062 62.065624 159.95312Q61.58125 159.25 60.83125 159.25Q60.1125 159.25 59.675 159.85938Q59.128124 160.64062 59.128124 162.76562ZM65.05 162.76562Q65.05 161.23438 65.3625 160.3125Q65.675 159.375 66.28438 158.875Q66.90938 158.375 67.84688 158.375Q68.53438 158.375 69.05 158.65625Q69.58125 158.9375 69.925 159.46875Q70.26875 159.98438 70.45625 160.73438Q70.64375 161.48438 70.64375 162.76562Q70.64375 164.28125 70.33125 165.20312Q70.03438 166.125 69.40938 166.64062Q68.8 167.14062 67.84688 167.14062Q66.6125 167.14062 65.89375 166.25Q65.05 165.1875 65.05 162.76562ZM66.12813 162.76562Q66.12813 164.875 66.62813 165.57812Q67.12813 166.28125 67.84688 166.28125Q68.58125 166.28125 69.06563 165.57812Q69.56563 164.875 69.56563 162.76562Q69.56563 160.64062 69.06563 159.95312Q68.58125 159.25 67.83125 159.25Q67.1125 159.25 66.675 159.85938Q66.12813 160.64062 66.12813 162.76562ZM72.05 162.76562Q72.05 161.23438 72.3625 160.3125Q72.675 159.375 73.28438 158.875Q73.90938 158.375 74.84688 158.375Q75.53438 158.375 76.05 158.65625Q76.58125 158.9375 76.925 159.46875Q77.26875 159.98438 77.45625 160.73438Q77.64375 161.48438 77.64375 162.76562Q77.64375 164.28125 77.33125 165.20312Q77.03438 166.125 76.40938 166.64062Q75.8 167.14062 74.84688 167.14062Q73.6125 167.14062 72.89375 166.25Q72.05 165.1875 72.05 162.76562ZM73.12813 162.76562Q73.12813 164.875 73.62813 165.57812Q74.12813 166.28125 74.84688 166.28125Q75.58125 166.28125 76.06563 165.57812Q76.56563 164.875 76.56563 162.76562Q76.56563 160.64062 76.06563 159.95312Q75.58125 159.25 74.83125 159.25Q74.1125 159.25 73.675 159.85938Q73.12813 160.64062 73.12813 162.76562Z" fill-rule="nonzero"/><path fill="#000000" d="M51.05 96.00938L52.1125 95.86875Q52.284374 96.75938 52.721874 97.16563Q53.159374 97.55625 53.784374 97.55625Q54.534374 97.55625 55.05 97.04063Q55.565624 96.525 55.565624 95.75938Q55.565624 95.04063 55.08125 94.57188Q54.6125 94.0875 53.878124 94.0875Q53.58125 94.0875 53.128124 94.2125L53.253124 93.275Q53.3625 93.29063 53.425 93.29063Q54.096874 93.29063 54.628124 92.94688Q55.175 92.5875 55.175 91.85313Q55.175 91.275 54.784374 90.9Q54.39375 90.50938 53.76875 90.50938Q53.159374 90.50938 52.7375 90.9Q52.33125 91.29063 52.221874 92.05625L51.159374 91.86875Q51.346874 90.82188 52.034374 90.24375Q52.721874 89.65 53.7375 89.65Q54.440624 89.65 55.034374 89.9625Q55.628124 90.25938 55.940624 90.775Q56.253124 91.29063 56.253124 91.88438Q56.253124 92.43125 55.95625 92.9Q55.659374 93.35313 55.08125 93.61875Q55.83125 93.79063 56.253124 94.35313Q56.675 94.9 56.675 95.74375Q56.675 96.86875 55.846874 97.65Q55.034374 98.43125 53.784374 98.43125Q52.659374 98.43125 51.909374 97.75938Q51.159374 97.07188 51.05 96.00938ZM58.05 94.04063Q58.05 92.50938 58.3625 91.5875Q58.675 90.65 59.284374 90.15Q59.909374 89.65 60.846874 89.65Q61.534374 89.65 62.05 89.93125Q62.58125 90.2125 62.925 90.74375Q63.26875 91.25938 63.45625 92.00938Q63.64375 92.75938 63.64375 94.04063Q63.64375 95.55625 63.33125 96.47813Q63.034374 97.4 62.409374 97.91563Q61.8 98.41563 60.846874 98.41563Q59.6125 98.41563 58.89375 97.525Q58.05 96.4625 58.05 94.04063ZM59.128124 94.04063Q59.128124 96.15 59.628124 96.85313Q60.128124 97.55625 60.846874 97.55625Q61.58125 97.55625 62.065624 96.85313Q62.565624 96.15 62.565624 94.04063Q62.565624 91.91563 62.065624 91.22813Q61.58125 90.525 60.83125 90.525Q60.1125 90.525 59.675 91.13438Q59.128124 91.91563 59.128124 94.04063ZM65.05 94.04063Q65.05 92.50938 65.3625 91.5875Q65.675 90.65 66.28438 90.15Q66.90938 89.65 67.84688 89.65Q68.53438 89.65 69.05 89.93125Q69.58125 90.2125 69.925 90.74375Q70.26875 91.25938 70.45625 92.00938Q70.64375 92.75938 70.64375 94.04063Q70.64375 95.55625 70.33125 96.47813Q70.03438 97.4 69.40938 97.91563Q68.8 98.41563 67.84688 98.41563Q66.6125 98.41563 65.89375 97.525Q65.05 96.4625 65.05 94.04063ZM66.12813 94.04063Q66.12813 96.15 66.62813 96.85313Q67.12813 97.55625 67.84688 97.55625Q68.58125 97.55625 69.06563 96.85313Q69.56563 96.15 69.56563 94.04063Q69.56563 91.91563 69.06563 91.22813Q68.58125 90.525 67.83125 90.525Q67.1125 90.525 66.675 91.13438Q66.12813 91.91563 66.12813 94.04063ZM72.05 94.04063Q72.05 92.50938 72.3625 91.5875Q72.675 90.65 73.28438 90.15Q73.90938 89.65 74.84688 89.65Q75.53438 89.65 76.05 89.93125Q76.58125 90.2125 76.925 90.74375Q77.26875 91.25938 77.45625 92.00938Q77.64375 92.75938 77.64375 94.04063Q77.64375 95.55625 77.33125 96.47813Q77.03438 97.4 76.40938 97.91563Q75.8 98.41563 74.84688 98.41563Q73.6125 98.41563 72.89375 97.525Q72.05 96.4625 72.05 94.04063ZM73.12813 94.04063Q73.12813 96.15 73.62813 96.85313Q74.12813 97.55625 74.84688 97.55625Q75.58125 97.55625 76.06563 96.85313Q76.56563 96.15 76.56563 94.04063Q76.56563 91.91563 76.06563 91.22813Q75.58125 90.525 74.83125 90.525Q74.1125 90.525 73.675 91.13438Q73.12813 91.91563 73.12813 94.04063Z" fill-rule="nonzero"/><path fill="#000000" d="M54.425 29.55L54.425 27.4875L50.70625 27.4875L50.70625 26.51875L54.628124 20.95625L55.4875 20.95625L55.4875 26.51875L56.64375 26.51875L56.64375 27.4875L55.4875 27.4875L55.4875 29.55L54.425 29.55ZM54.425 26.51875L54.425 22.659374L51.7375 26.51875L54.425 26.51875ZM58.05 25.315624Q58.05 23.784374 58.3625 22.8625Q58.675 21.925 59.284374 21.425Q59.909374 20.925 60.846874 20.925Q61.534374 20.925 62.05 21.20625Q62.58125 21.4875 62.925 22.01875Q63.26875 22.534374 63.45625 23.284374Q63.64375 24.034374 63.64375 25.315624Q63.64375 26.83125 63.33125 27.753124Q63.034374 28.675 62.409374 29.190624Q61.8 29.690624 60.846874 29.690624Q59.6125 29.690624 58.89375 28.8Q58.05 27.7375 58.05 25.315624ZM59.128124 25.315624Q59.128124 27.425 59.628124 28.128124Q60.128124 28.83125 60.846874 28.83125Q61.58125 28.83125 62.065624 28.128124Q62.565624 27.425 62.565624 25.315624Q62.565624 23.190624 62.065624 22.503124Q61.58125 21.8 60.83125 21.8Q60.1125 21.8 59.675 22.409374Q59.128124 23.190624 59.128124 25.315624ZM65.05 25.315624Q65.05 23.784374 65.3625 22.8625Q65.675 21.925 66.28438 21.425Q66.90938 20.925 67.84688 20.925Q68.53438 20.925 69.05 21.20625Q69.58125 21.4875 69.925 22.01875Q70.26875 22.534374 70.45625 23.284374Q70.64375 24.034374 70.64375 25.315624Q70.64375 26.83125 70.33125 27.753124Q70.03438 28.675 69.40938 29.190624Q68.8 29.690624 67.84688 29.690624Q66.6125 29.690624 65.89375 28.8Q65.05 27.7375 65.05 25.315624ZM66.12813 25.315624Q66.12813 27.425 66.62813 28.128124Q67.12813 28.83125 67.84688 28.83125Q68.58125 28.83125 69.06563 28.128124Q69.56563 27.425 69.56563 25.315624Q69.56563 23.190624 69.06563 22.503124Q68.58125 21.8 67.83125 21.8Q67.1125 21.8 66.675 22.409374Q66.12813 23.190624 66.12813 25.315624ZM72.05 25.315624Q72.05 23.784374 72.3625 22.8625Q72.675 21.925 73.28438 21.425Q73.90938 20.925 74.84688 20.925Q75.53438 20.925 76.05 21.20625Q76.58125 21.4875 76.925 22.01875Q77.26875 22.534374 77.45625 23.284374Q77.64375 24.034374 77.64375 25.315624Q77.64375 26.83125 77.33125 27.753124Q77.03438 28.675 76.40938 29.190624Q75.8 29.690624 74.84688 29.690624Q73.6125 29.690624 72.89375 28.8Q72.05 27.7375 72.05 25.315624ZM73.12813 25.315624Q73.12813 27.425 73.62813 28.128124Q74.12813 28.83125 74.84688 28.83125Q75.58125 28.83125 76.06563 28.128124Q76.56563 27.425 76.56563 25.315624Q76.56563 23.190624 76.06563 22.503124Q75.58125 21.8 74.83125 21.8Q74.1125 21.8 73.675 22.409374Q73.12813 23.190624 73.12813 25.315624Z" fill-rule="nonzero"/><path fill="#000000" d="M111.10132 313.21564Q111.10132 311.6844 111.41382 310.7625Q111.72632 309.825 112.33569 309.325Q112.96069 308.825 113.89819 308.825Q114.58569 308.825 115.10132 309.10626Q115.63257 309.3875 115.97632 309.91876Q116.32007 310.4344 116.50757 311.1844Q116.69507 311.9344 116.69507 313.21564Q116.69507 314.73126 116.38257 315.65314Q116.08569 316.575 115.46069 317.09064Q114.85132 317.59064 113.89819 317.59064Q112.66382 317.59064 111.94507 316.7Q111.10132 315.6375 111.10132 313.21564ZM112.17944 313.21564Q112.17944 315.325 112.67944 316.02814Q113.17944 316.73126 113.89819 316.73126Q114.63257 316.73126 115.11694 316.02814Q115.61694 315.325 115.61694 313.21564Q115.61694 311.09064 115.11694 310.40314Q114.63257 309.7 113.88257 309.7Q113.16382 309.7 112.72632 310.3094Q112.17944 311.09064 112.17944 313.21564Z" fill-rule="nonzero"/><path fill="#000000" d="M158.84981 317.45L157.80293 317.45L157.80293 310.73126Q157.41231 311.09064 156.78731 311.46564Q156.17793 311.825 155.69356 311.9969L155.69356 310.98126Q156.56856 310.5594 157.22481 309.98126Q157.89668 309.3875 158.17793 308.825L158.84981 308.825L158.84981 317.45Z" fill-rule="nonzero"/><path fill="#000000" d="M204.20767 316.4344L204.20767 317.45L198.52017 317.45Q198.52017 317.075 198.64517 316.71564Q198.86392 316.1375 199.33267 315.575Q199.81705 315.0125 200.7233 314.27814Q202.12955 313.1219 202.61392 312.45Q203.11392 311.77814 203.11392 311.1844Q203.11392 310.5594 202.6608 310.1375Q202.20767 309.7 201.48892 309.7Q200.7233 309.7 200.27017 310.15314Q199.81705 310.60626 199.80142 311.41876L198.7233 311.3094Q198.83267 310.09064 199.55142 309.46564Q200.2858 308.825 201.52017 308.825Q202.75455 308.825 203.4733 309.5125Q204.19205 310.2 204.19205 311.21564Q204.19205 311.73126 203.9733 312.23126Q203.77017 312.71564 203.27017 313.27814Q202.7858 313.825 201.6608 314.77814Q200.70767 315.575 200.42642 315.8719Q200.1608 316.15314 199.98892 316.4344L204.20767 316.4344Z" fill-rule="nonzero"/><path fill="#000000" d="M242.44052 315.1844L243.50302 315.04376Q243.6749 315.9344 244.1124 316.34064Q244.5499 316.73126 245.1749 316.73126Q245.9249 316.73126 246.44052 316.21564Q246.95615 315.7 246.95615 314.9344Q246.95615 314.21564 246.47177 313.7469Q246.00302 313.2625 245.26865 313.2625Q244.97177 313.2625 244.51865 313.3875L244.64365 312.45Q244.75302 312.46564 244.81552 312.46564Q245.4874 312.46564 246.01865 312.1219Q246.56552 311.7625 246.56552 311.02814Q246.56552 310.45 246.1749 310.075Q245.78427 309.6844 245.15927 309.6844Q244.5499 309.6844 244.12802 310.075Q243.72177 310.46564 243.6124 311.23126L242.5499 311.04376Q242.7374 309.9969 243.4249 309.41876Q244.1124 308.825 245.12802 308.825Q245.83115 308.825 246.4249 309.1375Q247.01865 309.4344 247.33115 309.95Q247.64365 310.46564 247.64365 311.0594Q247.64365 311.60626 247.34677 312.075Q247.0499 312.52814 246.47177 312.79376Q247.22177 312.96564 247.64365 313.52814Q248.06552 314.075 248.06552 314.91876Q248.06552 316.04376 247.2374 316.825Q246.4249 317.60626 245.1749 317.60626Q244.0499 317.60626 243.2999 316.9344Q242.5499 316.2469 242.44052 315.1844Z" fill-rule="nonzero"/><path fill="#000000" d="M289.59528 317.45L289.59528 315.3875L285.87653 315.3875L285.87653 314.41876L289.7984 308.85626L290.65778 308.85626L290.65778 314.41876L291.81403 314.41876L291.81403 315.3875L290.65778 315.3875L290.65778 317.45L289.59528 317.45ZM289.59528 314.41876L289.59528 310.5594L286.90778 314.41876L289.59528 314.41876Z" fill-rule="nonzero"/><path fill="#000000" d="M330.0 315.2L331.10938 315.10626Q331.23438 315.91876 331.67188 316.325Q332.125 316.73126 332.76562 316.73126Q333.51562 316.73126 334.04688 316.15314Q334.57812 315.575 334.57812 314.6375Q334.57812 313.73126 334.0625 313.21564Q333.5625 312.6844 332.73438 312.6844Q332.23438 312.6844 331.8125 312.91876Q331.40625 313.15314 331.17188 313.5125L330.1875 313.3875L331.01562 308.98126L335.29688 308.98126L335.29688 309.98126L331.85938 309.98126L331.40625 312.29376Q332.17188 311.7469 333.01562 311.7469Q334.14062 311.7469 334.90625 312.52814Q335.6875 313.3094 335.6875 314.54376Q335.6875 315.7 335.01562 316.5594Q334.1875 317.59064 332.76562 317.59064Q331.59375 317.59064 330.84375 316.9344Q330.10938 316.27814 330.0 315.2Z" fill-rule="nonzero"/><path fill="#000000" d="M379.24847 310.96564L378.2016 311.04376Q378.06097 310.41876 377.81097 310.1375Q377.37347 309.6844 376.74847 309.6844Q376.24847 309.6844 375.85785 309.96564Q375.37347 310.34064 375.0766 311.04376Q374.79535 311.73126 374.77972 313.0125Q375.15472 312.4344 375.7016 312.15314Q376.2641 311.8719 376.87347 311.8719Q377.92035 311.8719 378.65472 312.65314Q379.40472 313.4344 379.40472 314.65314Q379.40472 315.46564 379.04535 316.16876Q378.7016 316.85626 378.09222 317.23126Q377.48285 317.59064 376.71722 317.59064Q375.3891 317.59064 374.56097 316.6219Q373.73285 315.65314 373.73285 313.4344Q373.73285 310.9344 374.65472 309.8094Q375.4516 308.825 376.81097 308.825Q377.8266 308.825 378.46722 309.40314Q379.12347 309.96564 379.24847 310.96564ZM374.9516 314.66876Q374.9516 315.21564 375.17035 315.71564Q375.40472 316.2 375.81097 316.46564Q376.23285 316.73126 376.7016 316.73126Q377.35785 316.73126 377.84222 316.2Q378.3266 315.65314 378.3266 314.73126Q378.3266 313.84064 377.84222 313.325Q377.37347 312.8094 376.65472 312.8094Q375.93597 312.8094 375.43597 313.325Q374.9516 313.84064 374.9516 314.66876Z" fill-rule="nonzero"/><path fill="#000000" d="M417.62198 309.98126L417.62198 308.96564L423.18448 308.96564L423.18448 309.79376Q422.37198 310.66876 421.55948 312.1219Q420.7626 313.5594 420.3251 315.09064Q419.99698 316.16876 419.91885 317.45L418.8251 317.45Q418.84073 316.4344 419.21573 314.9969Q419.60635 313.5594 420.30948 312.23126Q421.02823 310.90314 421.84073 309.98126L417.62198 309.98126Z" fill-rule="nonzero"/><path fill="#000000" d="M462.9642 312.79376Q462.30795 312.54376 461.97983 312.10626Q461.66733 311.65314 461.66733 311.04376Q461.66733 310.10626 462.3392 309.46564Q463.0267 308.825 464.13608 308.825Q465.26108 308.825 465.94858 309.48126Q466.63608 310.1375 466.63608 311.075Q466.63608 311.66876 466.32358 312.10626Q466.01108 312.54376 465.37045 312.79376Q466.16733 313.04376 466.57358 313.6219Q466.97983 314.2 466.97983 314.9969Q466.97983 316.09064 466.19858 316.84064Q465.43295 317.59064 464.1517 317.59064Q462.88608 317.59064 462.10483 316.84064Q461.32358 316.09064 461.32358 314.96564Q461.32358 314.1219 461.74545 313.5594Q462.18295 312.9969 462.9642 312.79376ZM462.74545 310.9969Q462.74545 311.60626 463.13608 311.9969Q463.54233 312.3875 464.16733 312.3875Q464.7767 312.3875 465.16733 312.0125Q465.55795 311.6219 465.55795 311.0594Q465.55795 310.48126 465.1517 310.09064Q464.74545 309.6844 464.1517 309.6844Q463.54233 309.6844 463.13608 310.075Q462.74545 310.46564 462.74545 310.9969ZM462.41733 314.96564Q462.41733 315.41876 462.62045 315.84064Q462.8392 316.2625 463.26108 316.4969Q463.68295 316.73126 464.16733 316.73126Q464.91733 316.73126 465.4017 316.2469Q465.9017 315.7625 465.9017 315.0125Q465.9017 314.2469 465.4017 313.7469Q464.9017 313.2469 464.13608 313.2469Q463.38608 313.2469 462.9017 313.7469Q462.41733 314.23126 462.41733 314.96564Z" fill-rule="nonzero"/><path fill="#000000" d="M505.2752 315.46564L506.29083 315.3719Q506.41583 316.09064 506.7752 316.41876Q507.1502 316.73126 507.7127 316.73126Q508.19708 316.73126 508.55646 316.5125Q508.93146 316.27814 509.16583 315.91876Q509.4002 315.54376 509.55646 314.91876Q509.7127 314.27814 509.7127 313.6219Q509.7127 313.54376 509.7127 313.40314Q509.4002 313.90314 508.85333 314.23126Q508.30646 314.54376 507.66583 314.54376Q506.5877 314.54376 505.85333 313.77814Q505.11896 312.9969 505.11896 311.73126Q505.11896 310.41876 505.88458 309.6219Q506.66583 308.825 507.82208 308.825Q508.6502 308.825 509.3377 309.27814Q510.04083 309.73126 510.4002 310.575Q510.75958 311.40314 510.75958 312.98126Q510.75958 314.6219 510.4002 315.60626Q510.05646 316.575 509.3377 317.09064Q508.63458 317.59064 507.69708 317.59064Q506.68146 317.59064 506.04083 317.04376Q505.4002 316.48126 505.2752 315.46564ZM509.5877 311.66876Q509.5877 310.7625 509.10333 310.23126Q508.63458 309.7 507.94708 309.7Q507.24396 309.7 506.7127 310.27814Q506.19708 310.84064 506.19708 311.7625Q506.19708 312.575 506.69708 313.09064Q507.19708 313.60626 507.91583 313.60626Q508.6502 313.60626 509.11896 313.09064Q509.5877 312.575 509.5877 311.66876Z" fill-rule="nonzero"/><path fill="#000000" d="M549.36743 317.45L548.32056 317.45L548.32056 310.73126Q547.92993 311.09064 547.30493 311.46564Q546.69556 311.825 546.2112 311.9969L546.2112 310.98126Q547.0862 310.5594 547.74243 309.98126Q548.4143 309.3875 548.69556 308.825L549.36743 308.825L549.36743 317.45ZM552.3987 313.21564Q552.3987 311.6844 552.7112 310.7625Q553.0237 309.825 553.63306 309.325Q554.25806 308.825 555.19556 308.825Q555.88306 308.825 556.3987 309.10626Q556.92993 309.3875 557.2737 309.91876Q557.61743 310.4344 557.80493 311.1844Q557.99243 311.9344 557.99243 313.21564Q557.99243 314.73126 557.67993 315.65314Q557.38306 316.575 556.75806 317.09064Q556.1487 317.59064 555.19556 317.59064Q553.9612 317.59064 553.24243 316.7Q552.3987 315.6375 552.3987 313.21564ZM553.4768 313.21564Q553.4768 315.325 553.9768 316.02814Q554.4768 316.73126 555.19556 316.73126Q555.92993 316.73126 556.4143 316.02814Q556.9143 315.325 556.9143 313.21564Q556.9143 311.09064 556.4143 310.40314Q555.92993 309.7 555.17993 309.7Q554.4612 309.7 554.0237 310.3094Q553.4768 311.09064 553.4768 313.21564Z" fill-rule="nonzero"/></svg>